<svg xmlns="http://www.w3.org/2000/svg" height="48.418488" width="39.186391" version="1.1" viewBox="0 0 39.186391 48.418488" ratio="1" class="logo-top-tm uk-svg">
    <g transform="translate(-45.275 -82.943)">
        <g transform="matrix(.34119 0 0 .34119 -2325.2 -1269.3)">
            <path style="fill:#d33c44" d="m7005.4 3977.9c-14.206 8.2176-42.64 24.618-42.64 24.618 6.066 3.5064 18.164 10.487 18.164 10.487 8.1701-4.7012 24.475-14.131 24.475-14.131 8.17 4.7212 24.475 14.131 24.475 14.131 6.0659-3.4864 18.164-10.487 18.164-10.487-14.213-8.2061-28.426-16.412-42.639-24.618z"></path>
            <path style="fill:#d33c44" d="m7005.4 4006.3c-6.0189 3.4908-18.083 10.44-18.083 10.44 2.5783 1.4928 7.7034 4.4476 7.7034 4.4476 3.4707-1.988 10.38-5.9928 10.38-5.9928 3.4707 2.008 10.38 5.9928 10.38 5.9928 2.5783-1.4729 7.7034-4.4476 7.7034-4.4476-0.2138-0.1235-17.869-10.317-18.083-10.44z"></path>
            <path style="fill:#e96c72" d="m7029.9 4013c6.0659-3.4864 18.164-10.487 18.164-10.487 0.01 16.425 0 49.236 0 49.236-8.1499 4.7211-24.475 14.131-24.475 14.131 8.1699 4.7211 24.475 14.131 24.475 14.131-6.046 3.5064-18.164 10.487-18.164 10.487-8.1499-4.7011-24.475-14.131-24.475-14.131 0.01-6.983 0-20.975 0-20.975 2.141-1.2203 6.3917-3.6902 6.3917-3.6902-2.121-1.2204-6.3917-3.6903-6.3917-3.6903 0.01-2.9557 0-8.8952 0-8.8952 3.4707-1.988 10.38-5.9927 10.38-5.9927 0.01-3.986 0-11.986 0-11.986 2.5783-1.4729 7.7034-4.4476 7.7034-4.4476 0.01 6.9716 0 20.881 0 20.881-3.4506 2.008-10.38 5.9928-10.38 5.9928 2.1411 1.2403 6.3918 3.6903 6.3918 3.6903 3.4707-1.988 10.38-5.9928 10.38-5.9928v-28.261"></path>
            <path style="fill:#9e494e" d="m6962.8 4002.6c0.01 25.848 0 77.497 0 77.497 6.066 3.5065 18.164 10.487 18.164 10.487 0.01-9.4123 0-28.261 0-28.261 8.1701 4.7211 24.475 14.131 24.475 14.131 0.01-6.983 0-20.975 0-20.975-3.4506-1.9879-10.38-5.9926-10.38-5.9926 0.01-1.9042 0-7.3806 0-7.3806 3.4707 2.0079 10.38 5.9927 10.38 5.9927 0.01-2.9557 0-8.8952 0-8.8952-3.4506-1.988-10.38-5.9927-10.38-5.9927 0.01-3.986 0-11.986 0-11.986-2.5583-1.4729-7.7034-4.4476-7.7034-4.4476 0.01 9.4323-0.0001 28.261-0.0001 28.261-2.1211-1.2204-6.3919-3.6903-6.3919-3.6903 0.01-9.4124 0-28.261 0-28.261l-18.164-10.487"></path>
        </g>
    </g>
</svg>